<svg xmlns="http://www.w3.org/2000/svg" width="20" height="21" viewBox="0 0 20 21" fill="none">
    <g clip-path="url(#clip0_1_2070)">
    <path d="M14.8127 8.20996H13.0627H12.4377V7.58496V5.64746V5.02246H13.0627H14.3752C14.719 5.02246 15.0002 4.77246 15.0002 4.39746V1.08496C15.0002 0.741211 14.7502 0.459961 14.3752 0.459961H12.094C9.62524 0.459961 7.90649 2.20996 7.90649 4.80371V7.52246V8.14746H7.28149H5.15649C4.71899 8.14746 4.31274 8.49121 4.31274 8.99121V11.2412C4.31274 11.6787 4.65649 12.085 5.15649 12.085H7.21899H7.84399V12.71V18.9912C7.84399 19.4287 8.18774 19.835 8.68774 19.835H11.6252C11.8127 19.835 11.969 19.7412 12.094 19.6162C12.219 19.4912 12.3127 19.2725 12.3127 19.085V12.7412V12.1162H12.969H14.3752C14.7815 12.1162 15.094 11.8662 15.1565 11.4912V11.46V11.4287L15.594 9.27246C15.6252 9.05371 15.594 8.80371 15.4065 8.55371C15.344 8.39746 15.0627 8.24121 14.8127 8.20996Z" fill="white"/>
    </g>
    <defs>
    <clipPath id="clip0_1_2070">
    <rect width="20" height="20" fill="white" transform="translate(0 0.147461)"/>
    </clipPath>
    </defs>
    </svg>