<svg xmlns="http://www.w3.org/2000/svg" width="20" height="21" viewBox="0 0 20 21" fill="none">
    <g clip-path="url(#clip0_1_2076)">
      <path d="M19.2193 9.27261H10.2505V11.9289H16.688C16.3443 15.6164 13.3443 17.2101 10.438 17.2101C6.7505 17.2101 3.46925 14.3351 3.46925 10.1789C3.46925 6.17886 6.59425 3.14762 10.438 3.14762C13.3755 3.14762 15.1568 5.05386 15.1568 5.05386L16.9693 3.14762C16.9693 3.14762 14.5318 0.491367 10.313 0.491367C4.7505 0.460117 0.500488 5.11636 0.500488 10.1476C0.500488 15.0226 4.5005 19.8351 10.4068 19.8351C15.6255 19.8351 19.3755 16.3039 19.3755 11.0226C19.4068 9.92886 19.2193 9.27261 19.2193 9.27261Z" fill="white"/>
    </g>
    <defs>
      <clipPath id="clip0_1_2076">
        <rect width="20" height="20" fill="white" transform="translate(0 0.147461)"/>
      </clipPath>
    </defs>
  </svg>