<svg width="50" height="50" viewBox="0 0 50 50" fill="none" xmlns="http://www.w3.org/2000/svg">
<g clip-path="url(#clip0_559_4729)">
<path d="M6.25 6.25V48.4375C6.2498 48.7088 6.32026 48.9755 6.45445 49.2114C6.58864 49.4472 6.78193 49.644 7.01529 49.7825C7.24865 49.9209 7.51403 49.9962 7.78533 50.0009C8.05662 50.0056 8.32447 49.9396 8.5625 49.8094L25 40.8406L41.4375 49.8094C41.6755 49.9396 41.9434 50.0056 42.2147 50.0009C42.486 49.9962 42.7514 49.9209 42.9847 49.7825C43.2181 49.644 43.4114 49.4472 43.5455 49.2114C43.6797 48.9755 43.7502 48.7088 43.75 48.4375V6.25C43.75 4.5924 43.0915 3.00269 41.9194 1.83058C40.7473 0.65848 39.1576 0 37.5 0L12.5 0C10.8424 0 9.25269 0.65848 8.08058 1.83058C6.90848 3.00269 6.25 4.5924 6.25 6.25Z" fill="#990047"/>
</g>
<defs>
<clipPath id="clip0_559_4729">
<rect width="50" height="50" fill="white"/>
</clipPath>
</defs>
</svg>
