<svg width="65" height="64" viewBox="0 0 65 64" fill="none" xmlns="http://www.w3.org/2000/svg">
<g id="Dotted Shape">
<circle id="Ellipse 53" cx="25.9911" cy="25.9913" r="1.39737" transform="rotate(-90 25.9911 25.9913)" fill="#990047"/>
<circle id="Ellipse 54" cx="38.288" cy="25.9913" r="1.39737" transform="rotate(-90 38.288 25.9913)" fill="#990047"/>
<circle id="Ellipse 55" cx="50.5849" cy="25.9913" r="1.39737" transform="rotate(-90 50.5849 25.9913)" fill="#990047"/>
<circle id="Ellipse 77" cx="62.7216" cy="25.9913" r="1.39737" transform="rotate(-90 62.7216 25.9913)" fill="#990047"/>
<circle id="Ellipse 63" cx="25.9911" cy="13.6944" r="1.39737" transform="rotate(-90 25.9911 13.6944)" fill="#990047"/>
<circle id="Ellipse 64" cx="38.288" cy="13.6944" r="1.39737" transform="rotate(-90 38.288 13.6944)" fill="#990047"/>
<circle id="Ellipse 65" cx="50.5849" cy="13.6944" r="1.39737" transform="rotate(-90 50.5849 13.6944)" fill="#990047"/>
<circle id="Ellipse 79" cx="62.7216" cy="13.6944" r="1.39737" transform="rotate(-90 62.7216 13.6944)" fill="#990047"/>
<circle id="Ellipse 15" cx="25.9911" cy="38.0089" r="1.39737" transform="rotate(-90 25.9911 38.0089)" fill="#990047"/>
<circle id="Ellipse 73" cx="25.9911" cy="1.39755" r="1.39737" transform="rotate(-90 25.9911 1.39755)" fill="#990047"/>
<circle id="Ellipse 20" cx="38.288" cy="38.0089" r="1.39737" transform="rotate(-90 38.288 38.0089)" fill="#990047"/>
<circle id="Ellipse 74" cx="38.288" cy="1.39755" r="1.39737" transform="rotate(-90 38.288 1.39755)" fill="#990047"/>
<circle id="Ellipse 25" cx="50.5849" cy="38.0089" r="1.39737" transform="rotate(-90 50.5849 38.0089)" fill="#990047"/>
<circle id="Ellipse 80" cx="62.7216" cy="38.0089" r="1.39737" transform="rotate(-90 62.7216 38.0089)" fill="#990047"/>
<circle id="Ellipse 75" cx="50.5849" cy="1.39755" r="1.39737" transform="rotate(-90 50.5849 1.39755)" fill="#990047"/>
<circle id="Ellipse 81" cx="62.7216" cy="1.39755" r="1.39737" transform="rotate(-90 62.7216 1.39755)" fill="#990047"/>
</g>
</svg>
