<svg width="32" height="32" viewBox="0 0 32 32" fill="none" xmlns="http://www.w3.org/2000/svg">
<g id="envelope">
<path id="Vector" d="M27.9996 4.7998H3.99961C2.29961 4.7998 0.849609 6.1998 0.849609 7.9498V24.1498C0.849609 25.8498 2.24961 27.2998 3.99961 27.2998H27.9996C29.6996 27.2998 31.1496 25.8998 31.1496 24.1498V7.8998C31.1496 6.1998 29.6996 4.7998 27.9996 4.7998ZM27.9996 7.0498C28.0496 7.0498 28.0996 7.0498 28.1496 7.0498L15.9996 14.8498L3.84961 7.0498C3.89961 7.0498 3.94961 7.0498 3.99961 7.0498H27.9996ZM27.9996 24.9498H3.99961C3.49961 24.9498 3.09961 24.5498 3.09961 24.0498V9.2498L14.7996 16.7498C15.1496 16.9998 15.5496 17.0998 15.9496 17.0998C16.3496 17.0998 16.7496 16.9998 17.0996 16.7498L28.7996 9.2498V24.0998C28.8996 24.5998 28.4996 24.9498 27.9996 24.9498Z" fill="#FFF5EE"/>
</g>
</svg>
