<svg width="32" height="32" viewBox="0 0 32 32" fill="none" xmlns="http://www.w3.org/2000/svg">
<g id="Group">
<g id="Group_2">
<path id="Vector" d="M24.2995 31.1499C22.9495 31.1499 21.3995 30.7999 19.6995 30.1499C16.2995 28.7999 12.5495 26.1999 9.19954 22.8499C5.84954 19.4999 3.24954 15.7499 1.89954 12.2999C0.399542 8.59994 0.549542 5.54994 2.29954 3.84994C2.34954 3.79994 2.44954 3.74994 2.49954 3.69994L6.69954 1.19994C7.74954 0.599942 9.09954 0.899942 9.79954 1.89994L12.7495 6.29994C13.4495 7.34994 13.1495 8.74994 12.1495 9.44994L10.3495 10.6999C11.6495 12.7999 15.3495 17.9499 21.2495 21.6499L22.3495 20.0499C23.1995 18.8499 24.5495 18.4999 25.6495 19.2499L30.0495 22.1999C31.0495 22.8999 31.3495 24.2499 30.7495 25.2999L28.2495 29.4999C28.1995 29.5999 28.1495 29.6499 28.0995 29.6999C27.1995 30.6499 25.8995 31.1499 24.2995 31.1499ZM3.79954 5.54994C2.84954 6.59994 2.89954 8.74994 3.99954 11.4999C5.24954 14.6499 7.64954 18.0999 10.7995 21.2499C13.8995 24.3499 17.3995 26.7499 20.4995 27.9999C23.1995 29.0999 25.3495 29.1499 26.4495 28.1999L28.8495 24.0999C28.8495 24.0499 28.8495 24.0499 28.8495 23.9999L24.4495 21.0499C24.4495 21.0499 24.3495 21.0999 24.2495 21.2499L23.1495 22.8499C22.4495 23.8499 21.0995 24.1499 20.0995 23.4999C13.7995 19.5999 9.89954 14.1499 8.49954 11.9499C7.84954 10.8999 8.09954 9.54994 9.09954 8.84994L10.8995 7.59994V7.54994L7.94954 3.14994C7.94954 3.09994 7.89954 3.09994 7.84954 3.14994L3.79954 5.54994Z" fill="#FFF5EE"/>
</g>
<g id="Group_3">
<g id="Group_4">
<path id="Vector_2" d="M29.2995 14.25C28.6995 14.25 28.2495 13.8 28.1995 13.2C27.7995 8.15003 23.6495 4.10003 18.5495 3.75003C17.9495 3.70003 17.4495 3.20003 17.4995 2.55003C17.5495 1.95003 18.0495 1.45003 18.6995 1.50003C24.8995 1.90003 29.9495 6.80003 30.4495 13C30.4995 13.6 30.0495 14.15 29.3995 14.2C29.3995 14.25 29.3495 14.25 29.2995 14.25Z" fill="#FFF5EE"/>
</g>
<g id="Group_5">
<path id="Vector_3" d="M24.3493 14.7002C23.7993 14.7002 23.2993 14.3002 23.2493 13.7002C22.9493 11.0002 20.8493 8.90018 18.1493 8.55018C17.5493 8.50018 17.0993 7.90018 17.1493 7.30018C17.1993 6.70018 17.7993 6.25018 18.3993 6.30018C22.1493 6.75018 25.0493 9.65018 25.4993 13.4002C25.5493 14.0002 25.1493 14.5502 24.4993 14.6502C24.3993 14.7002 24.3493 14.7002 24.3493 14.7002Z" fill="#FFF5EE"/>
</g>
</g>
</g>
</svg>
