<svg width="32" height="32" viewBox="0 0 32 32" fill="none" xmlns="http://www.w3.org/2000/svg">
<g id="Group">
<g id="Group_2">
<path id="Vector" d="M24.3 31.1499C22.95 31.1499 21.4 30.7999 19.7 30.1499C16.3 28.7999 12.55 26.1999 9.20003 22.8499C5.85003 19.4999 3.25003 15.7499 1.90003 12.2999C0.400031 8.59994 0.550031 5.54994 2.30003 3.84994C2.35003 3.79994 2.45003 3.74994 2.50003 3.69994L6.70003 1.19994C7.75003 0.599942 9.10003 0.899942 9.80003 1.89994L12.75 6.29994C13.45 7.34994 13.15 8.74994 12.15 9.44994L10.35 10.6999C11.65 12.7999 15.35 17.9499 21.25 21.6499L22.35 20.0499C23.2 18.8499 24.55 18.4999 25.65 19.2499L30.05 22.1999C31.05 22.8999 31.35 24.2499 30.75 25.2999L28.25 29.4999C28.2 29.5999 28.15 29.6499 28.1 29.6999C27.2 30.6499 25.9 31.1499 24.3 31.1499ZM3.80003 5.54994C2.85003 6.59994 2.90003 8.74994 4.00003 11.4999C5.25003 14.6499 7.65003 18.0999 10.8 21.2499C13.9 24.3499 17.4 26.7499 20.5 27.9999C23.2 29.0999 25.35 29.1499 26.45 28.1999L28.85 24.0999C28.85 24.0499 28.85 24.0499 28.85 23.9999L24.45 21.0499C24.45 21.0499 24.35 21.0999 24.25 21.2499L23.15 22.8499C22.45 23.8499 21.1 24.1499 20.1 23.4999C13.8 19.5999 9.90003 14.1499 8.50003 11.9499C7.85003 10.8999 8.10003 9.54994 9.10003 8.84994L10.9 7.59994V7.54994L7.95003 3.14994C7.95003 3.09994 7.90003 3.09994 7.85003 3.14994L3.80003 5.54994Z" fill="#5A5858"/>
</g>
<g id="Group_3">
<g id="Group_4">
<path id="Vector_2" d="M29.3 14.25C28.7 14.25 28.25 13.8 28.2 13.2C27.8 8.15003 23.65 4.10003 18.55 3.75003C17.95 3.70003 17.45 3.20003 17.5 2.55003C17.55 1.95003 18.05 1.45003 18.7 1.50003C24.9 1.90003 29.95 6.80003 30.45 13C30.5 13.6 30.05 14.15 29.4 14.2C29.4 14.25 29.35 14.25 29.3 14.25Z" fill="#5A5858"/>
</g>
<g id="Group_5">
<path id="Vector_3" d="M24.35 14.7002C23.8 14.7002 23.3 14.3002 23.25 13.7002C22.95 11.0002 20.85 8.90018 18.15 8.55018C17.55 8.50018 17.1 7.90018 17.15 7.30018C17.2 6.70018 17.8 6.25018 18.4 6.30018C22.15 6.75018 25.05 9.65018 25.5 13.4002C25.55 14.0002 25.15 14.5502 24.5 14.6502C24.4 14.7002 24.35 14.7002 24.35 14.7002Z" fill="#5A5858"/>
</g>
</g>
</g>
</svg>
