<svg width="32" height="32" viewBox="0 0 32 32" fill="none" xmlns="http://www.w3.org/2000/svg">
<g id="house-alt-1">
<path id="Vector" d="M29.4504 9.7L17.9004 1.6C16.7504 0.8 15.2504 0.8 14.1004 1.6L2.55039 9.7C1.65039 10.3 1.15039 11.35 1.15039 12.4V27.75C1.15039 29.55 2.65039 31.05 4.45039 31.05H27.6004C29.4004 31.05 30.9004 29.55 30.9004 27.75V12.4C30.9004 11.3 30.3504 10.3 29.4504 9.7ZM20.5504 28.75H11.4504V23C11.4504 22.65 11.6004 22.35 11.9004 22.15L15.4004 19.7C15.7504 19.45 16.2504 19.45 16.6004 19.7L20.1004 22.15C20.4004 22.35 20.5504 22.65 20.5504 23V28.75ZM28.6504 27.7C28.6504 28.3 28.2004 28.75 27.6004 28.75H22.8004V23C22.8004 21.95 22.3004 20.9 21.4004 20.3L17.9004 17.85C16.7504 17.05 15.2504 17.05 14.1004 17.85L10.6004 20.3C9.70039 20.9 9.20039 21.95 9.20039 23V28.75H4.40039C3.80039 28.75 3.35039 28.3 3.35039 27.7V12.4C3.35039 12.05 3.50039 11.75 3.80039 11.55L15.4004 3.4C15.6004 3.25 15.8004 3.2 16.0004 3.2C16.2004 3.2 16.4004 3.25 16.6004 3.4L28.2004 11.5C28.5004 11.7 28.6504 12 28.6504 12.35V27.7Z" fill="#FFF5EE"/>
</g>
</svg>
